<svg width="28" height="28" viewBox="0 0 28 28" fill="none" xmlns="http://www.w3.org/2000/svg">
<g id="24 / maps / globe">
<path id="icon" fill-rule="evenodd" clip-rule="evenodd" d="M14 3.5C18.5103 3.5 22.1667 7.15634 22.1667 11.6667C22.1667 16.177 18.5103 19.8333 14 19.8333C9.48967 19.8333 5.83333 16.177 5.83333 11.6667C5.83333 7.15634 9.48967 3.5 14 3.5ZM15.1667 23.2757V24.5H17.5V26.8333H10.5V24.5H12.8333V23.2755C10.1654 23.0099 7.69682 21.8391 5.80167 19.9672L7.4414 18.3071C9.17768 20.0222 11.5101 21 14 21C19.1547 21 23.3333 16.8213 23.3333 11.6667C23.3333 9.21632 22.3865 6.91802 20.7198 5.18931L22.3995 3.56975C24.4815 5.7291 25.6667 8.6061 25.6667 11.6667C25.6667 17.7162 21.0622 22.6904 15.1667 23.2757ZM8.16666 11.6667C8.16666 8.44501 10.7783 5.83333 14 5.83333C17.2217 5.83333 19.8333 8.44501 19.8333 11.6667C19.8333 14.8883 17.2217 17.5 14 17.5C10.7783 17.5 8.16666 14.8883 8.16666 11.6667Z" fill="#030083"/>
</g>
</svg>
