<svg width="33" height="33" viewBox="0 0 33 33" fill="none" xmlns="http://www.w3.org/2000/svg">
<g id="24 / connection / wi-fi">
<path id="icon" fill-rule="evenodd" clip-rule="evenodd" d="M2.85301 12.5132C2.81851 12.5477 2.78418 12.5823 2.75 12.617L4.69461 14.5616C4.72874 14.5269 4.76305 14.4922 4.79755 14.4577C11.2067 8.04859 21.5767 8.01427 28.0282 14.3548L29.9728 12.4102C22.4473 4.99576 10.3361 5.0301 2.85301 12.5132ZM6.53531 16.4023C11.905 11.0326 20.611 11.0326 25.9807 16.4023L24.0362 18.3468C19.7404 14.0511 12.7756 14.0511 8.47985 18.3468L6.53531 16.4023ZM22.0917 20.2914C18.8698 17.0695 13.6462 17.0695 10.4244 20.2914L12.3689 22.2359C14.5168 20.088 17.9992 20.088 20.1471 22.2359L22.0917 20.2914ZM18.2026 24.1805C17.1286 23.1065 15.3874 23.1065 14.3135 24.1805L16.258 26.125L18.2026 24.1805Z" fill="#02007C"/>
</g>
</svg>
