<svg width="24" height="24" viewBox="0 0 24 24" fill="none" xmlns="http://www.w3.org/2000/svg">
<g id="24 / call / call-calling">
<path id="icon" fill-rule="evenodd" clip-rule="evenodd" d="M10.8566 8.3379C11.3747 7.63969 11.5605 6.90384 10.9746 6.25431C9.65961 4.41433 8.77527 3.27649 8.22057 2.72854C7.16601 1.6868 5.43124 1.82771 4.51791 2.72765C4.02736 3.21101 3.86128 3.377 3.35759 3.88861C0.551938 6.69577 2.26297 12.63 6.81151 17.183C11.359 21.735 17.2927 23.4469 20.1042 20.6338C20.569 20.1858 20.9626 19.792 21.2729 19.464C22.168 18.518 22.3038 16.8597 21.267 15.7824C20.7355 15.2301 19.6504 14.3885 17.7331 13.0169C17.1458 12.4918 16.4495 12.6056 15.8112 13.0244C15.5041 13.2259 15.2806 13.4297 14.8587 13.8521L14.0924 14.6187C13.9915 14.7197 12.6211 14.0334 11.2908 12.7018C9.95984 11.3695 9.27402 9.99906 9.37447 9.89862L10.1412 9.13142C10.2751 8.99742 10.3391 8.93254 10.4212 8.84627C10.5922 8.66654 10.7338 8.50344 10.8566 8.3379ZM15.5059 16.0329L16.2723 15.2661C16.5045 15.0337 16.655 14.8907 16.7774 14.7922C18.4571 15.9984 19.4298 16.7568 19.8272 17.1697C20.0657 17.4176 20.0287 17.8699 19.8213 18.089C19.5343 18.3924 19.1614 18.7655 18.7039 19.2068C16.8858 21.0256 12.096 19.6437 8.22525 15.7691C4.35327 11.8933 2.97201 7.10279 4.77632 5.29748C5.27798 4.78798 5.43692 4.62912 5.92048 4.15265C6.10178 3.97401 6.59564 3.93389 6.8162 4.15176C7.24326 4.57364 8.03546 5.58799 9.20083 7.21133C9.1405 7.28623 9.06515 7.37087 8.97345 7.46724C8.90615 7.53798 8.85008 7.59481 8.7275 7.71751L7.96148 8.48396C6.65833 9.787 7.76814 12.0047 9.8771 14.1157C11.9846 16.2253 14.2031 17.3364 15.5059 16.0329ZM13.6551 2.06944C17.9785 2.59348 21.4065 6.02153 21.9305 10.3448L19.9551 10.6741C19.5737 7.19172 16.8083 4.4263 13.3259 4.04488L13.6551 2.06944ZM12.9964 6.02202C15.6379 6.25828 17.7417 8.36209 17.978 11.0036L15.9962 11.3339C15.9121 9.53302 14.467 8.08789 12.6661 8.0038L12.9964 6.02202Z" fill="white"/>
</g>
</svg>
