<svg width="29" height="29" viewBox="0 0 29 29" fill="none" xmlns="http://www.w3.org/2000/svg">
<g id="24 / food / coffee">
<path id="icon" fill-rule="evenodd" clip-rule="evenodd" d="M5.26789 3.67898L5.83526 2.54424C6.24462 1.72552 7.08142 1.20834 7.99679 1.20834H21.0032C21.9186 1.20834 22.7554 1.72552 23.1647 2.54424L23.7321 3.67898C24.6181 3.86952 25.341 4.54838 25.5677 5.45555L26.1719 7.87222C26.4956 9.16705 25.7084 10.4791 24.4135 10.8029C24.2801 10.8362 24.1442 10.8581 24.0073 10.8683L21.5896 27.7917H7.41035L4.99274 10.8684C3.74205 10.7764 2.75594 9.73253 2.75594 8.45834C2.75594 8.26075 2.78017 8.06391 2.82809 7.87222L3.43226 5.45555C3.65905 4.54838 4.38193 3.86952 5.26789 3.67898ZM7.43488 10.875H21.5651L19.4937 25.375H9.50631L7.43488 10.875ZM5.77677 6.04168H6.78846L7.99679 3.62501H21.0032L22.2115 6.04168H23.2232L23.8274 8.45834H5.1726L5.77677 6.04168Z" fill="#030083"/>
</g>
</svg>
