<svg width="30" height="30" viewBox="0 0 30 30" fill="none" xmlns="http://www.w3.org/2000/svg">
<g id="24 / grid / stack">
<path id="icon" fill-rule="evenodd" clip-rule="evenodd" d="M27.25 6.625V21.75C28.7688 21.75 30 20.5188 30 19V5.25C30 3.73122 28.7688 2.5 27.25 2.5H13.5C11.9812 2.5 10.75 3.73122 10.75 5.25H25.875C26.6344 5.25 27.25 5.86561 27.25 6.625ZM23.125 25.875V10.75C23.125 9.99061 22.5094 9.375 21.75 9.375H6.62501C6.62501 7.85622 7.85623 6.625 9.37501 6.625H23.125C24.6438 6.625 25.875 7.85622 25.875 9.375V23.125C25.875 24.6438 24.6438 25.875 23.125 25.875ZM19 10.75H5.25C3.73122 10.75 2.5 11.9812 2.5 13.5V27.25C2.5 28.7688 3.73122 30 5.25 30H19C20.5188 30 21.75 28.7688 21.75 27.25V13.5C21.75 11.9812 20.5188 10.75 19 10.75ZM5.25 27.25V13.5H19V27.25H5.25Z" fill="#030083"/>
</g>
</svg>
