<svg width="27" height="27" viewBox="0 0 27 27" fill="none" xmlns="http://www.w3.org/2000/svg">
<g id="24 / music / player-play-circle">
<path id="icon" fill-rule="evenodd" clip-rule="evenodd" d="M25.875 13.5C25.875 20.3345 20.3345 25.875 13.5 25.875C6.66548 25.875 1.125 20.3345 1.125 13.5C1.125 6.66548 6.66548 1.125 13.5 1.125C20.3345 1.125 25.875 6.66548 25.875 13.5ZM3.375 13.5C3.375 19.0919 7.90812 23.625 13.5 23.625C19.0919 23.625 23.625 19.0919 23.625 13.5C23.625 7.90812 19.0919 3.375 13.5 3.375C7.90812 3.375 3.375 7.90812 3.375 13.5ZM9 7.875C9 6.99138 9.97194 6.45269 10.7212 6.921L19.7212 12.546C20.4263 12.9866 20.4263 14.0134 19.7212 14.454L10.7212 20.079C9.97194 20.5473 9 20.0086 9 19.125V7.875ZM11.25 9.90478L17.0024 13.5L11.25 17.0952V9.90478Z" fill="black"/>
</g>
</svg>
